<svg width="24" height="24" viewBox="0 0 24 24" fill="none" xmlns="http://www.w3.org/2000/svg">
<g clip-path="url(#clip0_203_1479)">
<rect width="14" height="2" transform="matrix(0 -1 1 0 2 22)" fill="#9FC9E9"/>
<rect width="20" height="2" transform="matrix(0 -1 1 0 4 22)" fill="#FB6A1C"/>
<rect width="11" height="2" transform="matrix(0 -1 1 0 6 22)" fill="#6285A0"/>
<rect width="13" height="2" transform="matrix(0 -1 1 0 9 22)" fill="#9FC9E9"/>
<rect width="20" height="2" transform="matrix(0 -1 1 0 11 22)" fill="#FB6A1C"/>
<rect width="11" height="2" transform="matrix(0 -1 1 0 13 22)" fill="#6285A0"/>
<rect width="13" height="2" transform="matrix(0 -1 1 0 16 22)" fill="#9FC9E9"/>
<rect width="20" height="2" transform="matrix(0 -1 1 0 18 22)" fill="#FB6A1C"/>
<rect width="11" height="2" transform="matrix(0 -1 1 0 20 22)" fill="#6285A0"/>
</g>
<defs>
<clipPath id="clip0_203_1479">
<rect width="20" height="20" fill="white" transform="matrix(0 -1 1 0 2 22)"/>
</clipPath>
</defs>
</svg>
