<svg width="24" height="24" viewBox="0 0 24 24" fill="none" xmlns="http://www.w3.org/2000/svg">
<g clip-path="url(#clip0_181_2673)">
<path d="M3 21C3.55228 21 4 20.5523 4 20C4 19.4477 3.55228 19 3 19C2.44772 19 2 19.4477 2 20C2 20.5523 2.44772 21 3 21Z" fill="#FB6A1C"/>
<path d="M19 4C19.5523 4 20 3.55228 20 3C20 2.44772 19.5523 2 19 2C18.4477 2 18 2.44772 18 3C18 3.55228 18.4477 4 19 4Z" fill="#6285A0"/>
<path d="M8 15C8.55228 15 9 14.5523 9 14C9 13.4477 8.55228 13 8 13C7.44772 13 7 13.4477 7 14C7 14.5523 7.44772 15 8 15Z" fill="#9FC9E9"/>
<path d="M14 12C14.5523 12 15 11.5523 15 11C15 10.4477 14.5523 10 14 10C13.4477 10 13 10.4477 13 11C13 11.5523 13.4477 12 14 12Z" fill="#9FC9E9"/>
<path d="M19 13C19.5523 13 20 12.5523 20 12C20 11.4477 19.5523 11 19 11C18.4477 11 18 11.4477 18 12C18 12.5523 18.4477 13 19 13Z" fill="#9FC9E9"/>
<path d="M15 7C15.5523 7 16 6.55228 16 6C16 5.44772 15.5523 5 15 5C14.4477 5 14 5.44772 14 6C14 6.55228 14.4477 7 15 7Z" fill="#9FC9E9"/>
<path d="M7 18C7.55228 18 8 17.5523 8 17C8 16.4477 7.55228 16 7 16C6.44772 16 6 16.4477 6 17C6 17.5523 6.44772 18 7 18Z" fill="#FFCDB3"/>
<path d="M8 21C8.55228 21 9 20.5523 9 20C9 19.4477 8.55228 19 8 19C7.44772 19 7 19.4477 7 20C7 20.5523 7.44772 21 8 21Z" fill="#FFCDB3"/>
<path d="M12 14C12.5523 14 13 13.5523 13 13C13 12.4477 12.5523 12 12 12C11.4477 12 11 12.4477 11 13C11 13.5523 11.4477 14 12 14Z" fill="#FFCDB3"/>
<path d="M12 9C12.5523 9 13 8.55228 13 8C13 7.44772 12.5523 7 12 7C11.4477 7 11 7.44772 11 8C11 8.55228 11.4477 9 12 9Z" fill="#FFCDB3"/>
<path d="M7 11C7.55228 11 8 10.5523 8 10C8 9.44772 7.55228 9 7 9C6.44772 9 6 9.44772 6 10C6 10.5523 6.44772 11 7 11Z" fill="#FB6A1C"/>
<path d="M18 9C18.5523 9 19 8.55228 19 8C19 7.44772 18.5523 7 18 7C17.4477 7 17 7.44772 17 8C17 8.55228 17.4477 9 18 9Z" fill="#FB6A1C"/>
<path d="M11 18C11.5523 18 12 17.5523 12 17C12 16.4477 11.5523 16 11 16C10.4477 16 10 16.4477 10 17C10 17.5523 10.4477 18 11 18Z" fill="#FB6A1C"/>
<path d="M16 14C16.5523 14 17 13.5523 17 13C17 12.4477 16.5523 12 16 12C15.4477 12 15 12.4477 15 13C15 13.5523 15.4477 14 16 14Z" fill="#FB6A1C"/>
<path d="M16 4C16.5523 4 17 3.55228 17 3C17 2.44772 16.5523 2 16 2C15.4477 2 15 2.44772 15 3C15 3.55228 15.4477 4 16 4Z" fill="#FB6A1C"/>
<path d="M3 17C3.55228 17 4 16.5523 4 16C4 15.4477 3.55228 15 3 15C2.44772 15 2 15.4477 2 16C2 16.5523 2.44772 17 3 17Z" fill="#FFCDB3"/>
<path d="M16 18C16.5523 18 17 17.5523 17 17C17 16.4477 16.5523 16 16 16C15.4477 16 15 16.4477 15 17C15 17.5523 15.4477 18 16 18Z" fill="#6285A0"/>
<path d="M13 21C13.5523 21 14 20.5523 14 20C14 19.4477 13.5523 19 13 19C12.4477 19 12 19.4477 12 20C12 20.5523 12.4477 21 13 21Z" fill="#6285A0"/>
</g>
<defs>
<clipPath id="clip0_181_2673">
<rect width="20" height="20" fill="white" transform="translate(2 2)"/>
</clipPath>
</defs>
</svg>
