<svg width="28" height="28" viewBox="0 0 28 28" fill="none" xmlns="http://www.w3.org/2000/svg">
<g clip-path="url(#clip0_3625_252936)">
<path fill-rule="evenodd" clip-rule="evenodd" d="M8.85689 20.7068C10.1189 22.0641 11.7592 23.0647 13.61 23.5411V27.6597C13.61 27.7742 13.602 27.8877 13.5863 27.9996H8.88056C8.86488 27.8877 8.85689 27.7742 8.85689 27.6597V20.7068ZM1.27562 27.9996H5.98137C5.99704 27.8877 6.00504 27.7742 6.00504 27.6597L6.27797 4.4873L5.25337 4.48735L3.78007 4.48734H2.07311L1.64375 4.4874L1.25195 4.48734V27.6597C1.25195 27.7742 1.25995 27.8877 1.27562 27.9996ZM16.4855 27.9996H21.1913C21.2069 27.8877 21.2149 27.7742 21.2149 27.6597L21.231 22.395C19.8341 23.2551 18.2062 23.7763 16.4619 23.8439V27.6597C16.4619 27.7742 16.4698 27.8877 16.4855 27.9996Z" fill="#0891B2"/>
<path fill-rule="evenodd" clip-rule="evenodd" d="M13.9179 6.50391C12.6897 6.85327 11.5314 7.51059 10.5661 8.47585C7.54046 11.5015 7.54046 16.4241 10.5661 19.4497C13.3207 22.2043 17.6435 22.4423 20.6798 20.181L26.0795 25.5806C26.5191 26.0202 27.2315 26.0202 27.6711 25.5806C28.1107 25.141 28.1103 24.4286 27.6707 23.989L22.2711 18.5896C23.9181 16.3783 24.2393 13.4846 23.2283 11.0114C22.7826 11.2302 22.3084 11.4 21.8129 11.5136C22.7788 13.7933 22.334 16.5333 20.4785 18.3888C18.0382 20.8292 14.0673 20.8292 11.6268 18.3888C9.18638 15.9483 9.18638 11.9774 11.6268 9.537C12.4241 8.73971 13.3848 8.20289 14.402 7.92656C14.189 7.47798 14.0253 7.00144 13.9179 6.50391Z" fill="#0891B2"/>
<path d="M11.5801 14.9635C11.5801 11.9407 13.5405 9.49023 15.9588 9.49023" stroke="#A5F3FC" stroke-miterlimit="10" stroke-linecap="round"/>
<path d="M24.4111 10.6035L25.2407 8.74789L27.0449 7.89456L25.2407 7.04799L24.4111 5.18555L23.5881 7.04799L21.7773 7.89456L23.5881 8.74789L24.4111 10.6035Z" fill="#2DD4BF"/>
<path d="M19.0462 0L17.6317 2.88095L14.5195 4.19048L17.6317 5.5L19.0462 8.38095L20.4608 5.5L23.573 4.19048L20.4608 2.88095L19.0462 0ZM18.4804 4.71429L19.6602 4.45238L20.84 4.19048L18.4804 4.71429Z" fill="#2DD4BF"/>
</g>
<defs>
<clipPath id="clip0_3625_252936">
<rect width="28" height="28" fill="white"/>
</clipPath>
</defs>
</svg>
