<svg width="254" height="254" viewBox="0 0 254 254" fill="none" xmlns="http://www.w3.org/2000/svg">
<path d="M142.875 147.32C129.521 147.291 116.532 142.96 105.833 134.969V216.958C105.833 218.362 106.391 219.708 107.383 220.7C108.376 221.692 109.721 222.25 111.125 222.25H137.583C138.987 222.25 140.333 221.692 141.325 220.7C142.317 219.708 142.875 218.362 142.875 216.958V147.32ZM137.583 95.25H113.215C115.356 101.426 119.357 106.787 124.668 110.597C129.979 114.407 136.339 116.479 142.875 116.528V100.542C142.875 99.1382 142.317 97.7923 141.325 96.7999C140.333 95.8075 138.987 95.25 137.583 95.25Z" fill="#2B1554"/>
<path fill-rule="evenodd" clip-rule="evenodd" d="M111.723 127.148C105.129 122.256 99.7732 115.886 96.0854 108.55C92.3977 101.214 90.4804 93.1156 90.4873 84.9048C90.4873 55.8377 114.051 32.2792 143.113 32.2792C172.175 32.2792 195.739 55.843 195.739 84.9048C195.757 95.7785 192.391 106.388 186.108 115.263L185.843 115.628L216.212 145.992L208.285 153.913L178.355 123.989L177.985 124.317C168.375 132.85 155.964 137.552 143.113 137.53H142.875V137.583C131.011 137.53 120.279 133.673 111.723 127.148ZM184.531 84.8995C184.531 95.8842 180.167 106.419 172.4 114.186C164.632 121.954 154.098 126.317 143.113 126.317C132.128 126.317 121.593 121.954 113.826 114.186C106.059 106.419 101.695 95.8842 101.695 84.8995C101.695 73.9148 106.059 63.38 113.826 55.6126C121.593 47.8453 132.128 43.4816 143.113 43.4816C154.098 43.4816 164.632 47.8453 172.4 55.6126C180.167 63.38 184.531 73.9148 184.531 84.8995Z" fill="#75C2E6" fill-opacity="0.69"/>
<path d="M47.6249 31.75C46.2215 31.75 44.8755 32.3075 43.8831 33.2999C42.8908 34.2923 42.3333 35.6382 42.3333 37.0417V216.958C42.3333 218.362 42.8908 219.708 43.8831 220.7C44.8755 221.692 46.2215 222.25 47.6249 222.25H74.0833C75.4867 222.25 76.8326 221.692 77.825 220.7C78.8174 219.708 79.3749 218.362 79.3749 216.958V37.0417C79.3749 35.6382 78.8174 34.2923 77.825 33.2999C76.8326 32.3075 75.4867 31.75 74.0833 31.75H47.6249ZM169.333 174.625C169.333 173.222 169.891 171.876 170.883 170.883C171.876 169.891 173.221 169.333 174.625 169.333H201.083C202.487 169.333 203.833 169.891 204.825 170.883C205.817 171.876 206.375 173.222 206.375 174.625V216.958C206.375 218.362 205.817 219.708 204.825 220.7C203.833 221.692 202.487 222.25 201.083 222.25H174.625C173.221 222.25 171.876 221.692 170.883 220.7C169.891 219.708 169.333 218.362 169.333 216.958V174.625Z" fill="#2B1554"/>
</svg>
